<?xml version="1.0" encoding="UTF-8" standalone="no"?>
<!DOCTYPE svg PUBLIC "-//W3C//DTD SVG 1.1//EN" "http://www.w3.org/Graphics/SVG/1.1/DTD/svg11.dtd">
<svg width="100%" height="100%" viewBox="0 0 250 100" version="1.1" xmlns="http://www.w3.org/2000/svg" xmlns:xlink="http://www.w3.org/1999/xlink" xml:space="preserve" xmlns:serif="http://www.serif.com/" style="fill-rule:evenodd;clip-rule:evenodd;stroke-linejoin:round;stroke-miterlimit:2;">
    <g transform="matrix(1,0,0,1,-100.37,-163.438)">
        <g transform="matrix(1,0,0,0.9,0,23.6933)">
            <g transform="matrix(93.2784,0,0,93.2784,130.18,236.933)">
                <path d="M0.566,-0.693L0.408,-0.693L0.233,-0.122L0.208,-0.693L0.05,-0.693L0.117,-0L0.314,-0L0.566,-0.693Z" style="fill:rgb(136,0,255);fill-rule:nonzero;"/>
            </g>
        </g>
        <g transform="matrix(1,0,0,0.9,0,23.6933)">
            <g transform="matrix(93.2784,0,0,93.2784,171.222,236.933)">
                <path d="M0.362,-0.71C0.128,-0.71 0.035,-0.469 0.035,-0.248C0.035,-0.074 0.116,0.017 0.263,0.017C0.496,0.017 0.59,-0.221 0.59,-0.445C0.59,-0.62 0.509,-0.71 0.362,-0.71ZM0.352,-0.595C0.405,-0.595 0.433,-0.558 0.433,-0.47C0.433,-0.333 0.396,-0.098 0.272,-0.098C0.221,-0.098 0.192,-0.132 0.192,-0.221C0.192,-0.356 0.23,-0.595 0.352,-0.595Z" style="fill:rgb(109,109,109);fill-rule:nonzero;"/>
            </g>
            <g transform="matrix(93.2784,0,0,93.2784,223.178,236.933)">
                <path d="M0.288,-0.693L0.111,-0.693L0.014,-0L0.201,-0C0.458,-0 0.555,-0.196 0.555,-0.444C0.555,-0.647 0.43,-0.693 0.288,-0.693ZM0.294,-0.58C0.356,-0.58 0.399,-0.551 0.399,-0.448C0.399,-0.307 0.361,-0.114 0.225,-0.114L0.184,-0.114L0.249,-0.58L0.294,-0.58Z" style="fill:rgb(109,109,109);fill-rule:nonzero;"/>
            </g>
            <g transform="matrix(93.2784,0,0,93.2784,271.963,236.933)">
                <path d="M0.471,-0.693L0.111,-0.693L0.014,-0L0.168,-0L0.207,-0.278L0.372,-0.278L0.389,-0.39L0.223,-0.39L0.25,-0.581L0.437,-0.581L0.471,-0.693Z" style="fill:rgb(109,109,109);fill-rule:nonzero;"/>
            </g>
        </g>
    </g>
    <g transform="matrix(0.962144,0,0,1.01559,-107.122,-236.392)">
        <g transform="matrix(1.07,0,0,0.9,-10.7554,31.5228)">
            <g transform="matrix(12,0,0,12,153.649,315.228)">
                <path d="M0.487,-0.531L0.332,-0.531L0.205,-0.115L0.189,-0.531L0.032,-0.531L0.099,-0L0.278,-0L0.487,-0.531Z" style="fill:rgb(136,0,255);fill-rule:nonzero;"/>
            </g>
            <g transform="matrix(12,0,0,12,158.575,315.228)">
                <path d="M0.3,-0.548C0.109,-0.548 0.025,-0.374 0.023,-0.194C0.021,-0.055 0.096,0.018 0.221,0.017C0.297,0.017 0.36,-0.012 0.411,-0.054L0.36,-0.142C0.317,-0.111 0.283,-0.095 0.243,-0.095C0.197,-0.095 0.17,-0.121 0.17,-0.184L0.17,-0.194C0.317,-0.21 0.467,-0.257 0.47,-0.405C0.472,-0.486 0.41,-0.548 0.3,-0.548ZM0.179,-0.286C0.193,-0.367 0.225,-0.446 0.285,-0.446C0.314,-0.446 0.326,-0.428 0.326,-0.404C0.326,-0.347 0.284,-0.296 0.179,-0.286Z" style="fill:rgb(136,0,255);fill-rule:nonzero;"/>
            </g>
            <g transform="matrix(12,0,0,12,163.939,315.228)">
                <path d="M0.342,-0.546C0.284,-0.546 0.24,-0.504 0.209,-0.437L0.212,-0.531L0.085,-0.531L0.011,-0L0.159,-0L0.194,-0.25C0.219,-0.336 0.251,-0.399 0.304,-0.399C0.318,-0.399 0.33,-0.396 0.342,-0.393L0.388,-0.538C0.373,-0.543 0.36,-0.546 0.342,-0.546Z" style="fill:rgb(136,0,255);fill-rule:nonzero;"/>
            </g>
            <g transform="matrix(12,0,0,12,168.035,315.228)">
                <path d="M0.491,-0.531L0.335,-0.531L0.198,-0.098L0.186,-0.531L0.032,-0.531L0.091,-0L0.144,-0.001C0.108,0.075 0.069,0.103 -0.021,0.117L-0.019,0.221C0.127,0.211 0.221,0.149 0.279,0.002L0.491,-0.531Z" style="fill:rgb(136,0,255);fill-rule:nonzero;"/>
            </g>
            <g transform="matrix(12,0,0,12,173.087,315.228)">
                <path d="M0.038,-0.254L0.316,-0.254L0.332,-0.371L0.054,-0.371L0.038,-0.254Z" style="fill:rgb(136,0,255);fill-rule:nonzero;"/>
            </g>
            <g transform="matrix(12,0,0,12,177.047,315.228)">
                <path d="M0.363,-0.548C0.298,-0.548 0.252,-0.501 0.221,-0.449L0.264,-0.757L0.114,-0.742L0.01,-0L0.158,-0L0.2,-0.303C0.234,-0.373 0.262,-0.415 0.29,-0.415C0.308,-0.415 0.317,-0.402 0.312,-0.363L0.262,-0L0.41,-0L0.465,-0.388C0.479,-0.487 0.438,-0.548 0.363,-0.548Z" style="fill:rgb(136,0,255);fill-rule:nonzero;"/>
            </g>
            <g transform="matrix(12,0,0,12,182.615,315.228)">
                <path d="M0.176,-0.635C0.228,-0.635 0.27,-0.675 0.27,-0.731C0.27,-0.774 0.242,-0.805 0.195,-0.805C0.143,-0.805 0.1,-0.765 0.1,-0.709C0.1,-0.666 0.128,-0.635 0.176,-0.635ZM0.233,-0.531L0.085,-0.531L0.011,-0L0.159,-0L0.233,-0.531Z" style="fill:rgb(136,0,255);fill-rule:nonzero;"/>
            </g>
            <g transform="matrix(12,0,0,12,185.207,315.228)">
                <path d="M0.307,-0.548C0.098,-0.548 0.023,-0.365 0.023,-0.19C0.023,-0.075 0.074,0.001 0.165,0.001C0.22,0.001 0.258,-0.028 0.287,-0.069L0.278,-0.003C0.266,0.088 0.221,0.107 0.172,0.107C0.13,0.107 0.091,0.093 0.051,0.069L-0.001,0.167C0.048,0.2 0.11,0.221 0.176,0.221C0.321,0.221 0.4,0.146 0.425,-0.025L0.492,-0.498C0.436,-0.529 0.373,-0.548 0.307,-0.548ZM0.295,-0.441C0.31,-0.441 0.323,-0.438 0.335,-0.433L0.299,-0.177C0.275,-0.14 0.248,-0.111 0.218,-0.111C0.19,-0.111 0.173,-0.131 0.173,-0.188C0.173,-0.309 0.209,-0.441 0.295,-0.441Z" style="fill:rgb(136,0,255);fill-rule:nonzero;"/>
            </g>
            <g transform="matrix(12,0,0,12,190.919,315.228)">
                <path d="M0.363,-0.548C0.298,-0.548 0.252,-0.501 0.221,-0.449L0.264,-0.757L0.114,-0.742L0.01,-0L0.158,-0L0.2,-0.303C0.234,-0.373 0.262,-0.415 0.29,-0.415C0.308,-0.415 0.317,-0.402 0.312,-0.363L0.262,-0L0.41,-0L0.465,-0.388C0.479,-0.487 0.438,-0.548 0.363,-0.548Z" style="fill:rgb(136,0,255);fill-rule:nonzero;"/>
            </g>
            <g transform="matrix(12,0,0,12,196.487,315.228)">
                <path d="M0.038,-0.254L0.316,-0.254L0.332,-0.371L0.054,-0.371L0.038,-0.254Z" style="fill:rgb(136,0,255);fill-rule:nonzero;"/>
            </g>
            <g transform="matrix(12,0,0,12,200.447,315.228)">
                <path d="M0.3,-0.548C0.109,-0.548 0.025,-0.374 0.023,-0.194C0.021,-0.055 0.096,0.018 0.221,0.017C0.297,0.017 0.36,-0.012 0.411,-0.054L0.36,-0.142C0.317,-0.111 0.283,-0.095 0.243,-0.095C0.197,-0.095 0.17,-0.121 0.17,-0.184L0.17,-0.194C0.317,-0.21 0.467,-0.257 0.47,-0.405C0.472,-0.486 0.41,-0.548 0.3,-0.548ZM0.179,-0.286C0.193,-0.367 0.225,-0.446 0.285,-0.446C0.314,-0.446 0.326,-0.428 0.326,-0.404C0.326,-0.347 0.284,-0.296 0.179,-0.286Z" style="fill:rgb(136,0,255);fill-rule:nonzero;"/>
            </g>
            <g transform="matrix(12,0,0,12,205.811,315.228)">
                <path d="M0.363,-0.548C0.298,-0.548 0.249,-0.503 0.211,-0.443L0.213,-0.531L0.085,-0.531L0.011,-0L0.159,-0L0.201,-0.303C0.235,-0.373 0.262,-0.415 0.291,-0.415C0.309,-0.415 0.318,-0.402 0.313,-0.363L0.263,-0L0.411,-0L0.466,-0.388C0.48,-0.487 0.439,-0.548 0.363,-0.548Z" style="fill:rgb(136,0,255);fill-rule:nonzero;"/>
            </g>
            <g transform="matrix(12,0,0,12,211.391,315.228)">
                <path d="M0.3,-0.548C0.109,-0.548 0.025,-0.374 0.023,-0.194C0.021,-0.055 0.096,0.018 0.221,0.017C0.297,0.017 0.36,-0.012 0.411,-0.054L0.36,-0.142C0.317,-0.111 0.283,-0.095 0.243,-0.095C0.197,-0.095 0.17,-0.121 0.17,-0.184L0.17,-0.194C0.317,-0.21 0.467,-0.257 0.47,-0.405C0.472,-0.486 0.41,-0.548 0.3,-0.548ZM0.179,-0.286C0.193,-0.367 0.225,-0.446 0.285,-0.446C0.314,-0.446 0.326,-0.428 0.326,-0.404C0.326,-0.347 0.284,-0.296 0.179,-0.286Z" style="fill:rgb(136,0,255);fill-rule:nonzero;"/>
            </g>
            <g transform="matrix(12,0,0,12,216.755,315.228)">
                <path d="M0.342,-0.546C0.284,-0.546 0.24,-0.504 0.209,-0.437L0.212,-0.531L0.085,-0.531L0.011,-0L0.159,-0L0.194,-0.25C0.219,-0.336 0.251,-0.399 0.304,-0.399C0.318,-0.399 0.33,-0.396 0.342,-0.393L0.388,-0.538C0.373,-0.543 0.36,-0.546 0.342,-0.546Z" style="fill:rgb(136,0,255);fill-rule:nonzero;"/>
            </g>
            <g transform="matrix(12,0,0,12,220.492,315.228)">
                <path d="M0.307,-0.548C0.098,-0.548 0.023,-0.365 0.023,-0.19C0.023,-0.075 0.074,0.001 0.165,0.001C0.22,0.001 0.258,-0.028 0.287,-0.069L0.278,-0.003C0.266,0.088 0.221,0.107 0.172,0.107C0.13,0.107 0.091,0.093 0.051,0.069L-0.001,0.167C0.048,0.2 0.11,0.221 0.176,0.221C0.321,0.221 0.4,0.146 0.425,-0.025L0.492,-0.498C0.436,-0.529 0.373,-0.548 0.307,-0.548ZM0.295,-0.441C0.31,-0.441 0.323,-0.438 0.335,-0.433L0.299,-0.177C0.275,-0.14 0.248,-0.111 0.218,-0.111C0.19,-0.111 0.173,-0.131 0.173,-0.188C0.173,-0.309 0.209,-0.441 0.295,-0.441Z" style="fill:rgb(136,0,255);fill-rule:nonzero;"/>
            </g>
            <g transform="matrix(12,0,0,12,226.204,315.228)">
                <path d="M0.491,-0.531L0.335,-0.531L0.198,-0.098L0.186,-0.531L0.032,-0.531L0.091,-0L0.144,-0.001C0.108,0.075 0.069,0.103 -0.021,0.117L-0.019,0.221C0.127,0.211 0.221,0.149 0.279,0.002L0.491,-0.531Z" style="fill:rgb(136,0,255);fill-rule:nonzero;"/>
            </g>
        </g>
        <g transform="matrix(1.07,0,0,0.9,-16.7129,31.5228)">
            <g transform="matrix(12,0,0,12,238.756,315.228)">
                <path d="M0.217,0.017C0.405,0.017 0.485,-0.165 0.485,-0.335C0.485,-0.474 0.412,-0.548 0.292,-0.548C0.104,-0.548 0.023,-0.366 0.023,-0.196C0.023,-0.056 0.096,0.017 0.217,0.017ZM0.227,-0.094C0.191,-0.094 0.173,-0.118 0.173,-0.176C0.173,-0.27 0.199,-0.437 0.282,-0.437C0.317,-0.437 0.335,-0.413 0.335,-0.355C0.335,-0.261 0.309,-0.094 0.227,-0.094Z" style="fill:rgb(109,109,109);fill-rule:nonzero;"/>
            </g>
            <g transform="matrix(12,0,0,12,244.54,315.228)">
                <path d="M-0.02,0.222L0.129,0.206L0.158,0.005C0.181,0.012 0.205,0.017 0.234,0.017C0.417,0.017 0.49,-0.168 0.49,-0.363C0.49,-0.482 0.44,-0.548 0.354,-0.548C0.306,-0.548 0.257,-0.525 0.214,-0.472L0.216,-0.532L0.085,-0.532L-0.02,0.222ZM0.223,-0.092C0.205,-0.092 0.19,-0.096 0.173,-0.103L0.212,-0.382C0.237,-0.415 0.265,-0.437 0.293,-0.437C0.32,-0.437 0.339,-0.42 0.339,-0.359C0.339,-0.259 0.308,-0.092 0.223,-0.092Z" style="fill:rgb(109,109,109);fill-rule:nonzero;"/>
            </g>
            <g transform="matrix(12,0,0,12,250.348,315.228)">
                <path d="M0.3,-0.548C0.109,-0.548 0.025,-0.374 0.023,-0.194C0.021,-0.055 0.096,0.018 0.221,0.017C0.297,0.017 0.36,-0.012 0.411,-0.054L0.36,-0.142C0.317,-0.111 0.283,-0.095 0.243,-0.095C0.197,-0.095 0.17,-0.121 0.17,-0.184L0.17,-0.194C0.317,-0.21 0.467,-0.257 0.47,-0.405C0.472,-0.486 0.41,-0.548 0.3,-0.548ZM0.179,-0.286C0.193,-0.367 0.225,-0.446 0.285,-0.446C0.314,-0.446 0.326,-0.428 0.326,-0.404C0.326,-0.347 0.284,-0.296 0.179,-0.286Z" style="fill:rgb(109,109,109);fill-rule:nonzero;"/>
            </g>
            <g transform="matrix(12,0,0,12,255.712,315.228)">
                <path d="M0.363,-0.548C0.298,-0.548 0.249,-0.503 0.211,-0.443L0.213,-0.531L0.085,-0.531L0.011,-0L0.159,-0L0.201,-0.303C0.235,-0.373 0.262,-0.415 0.291,-0.415C0.309,-0.415 0.318,-0.402 0.313,-0.363L0.263,-0L0.411,-0L0.466,-0.388C0.48,-0.487 0.439,-0.548 0.363,-0.548Z" style="fill:rgb(109,109,109);fill-rule:nonzero;"/>
            </g>
            <g transform="matrix(12,0,0,12,263.224,315.228)">
                <path d="M0.386,-0.757L0.35,-0.497C0.328,-0.527 0.296,-0.548 0.249,-0.548C0.095,-0.548 0.021,-0.349 0.021,-0.177C0.021,-0.053 0.072,0.017 0.162,0.017C0.224,0.017 0.265,-0.017 0.3,-0.069L0.297,-0L0.428,-0L0.532,-0.742L0.386,-0.757ZM0.28,-0.438C0.306,-0.438 0.322,-0.424 0.336,-0.4L0.304,-0.173C0.278,-0.126 0.25,-0.094 0.218,-0.094C0.191,-0.094 0.173,-0.113 0.173,-0.177C0.173,-0.275 0.203,-0.438 0.28,-0.438Z" style="fill:rgb(109,109,109);fill-rule:nonzero;"/>
            </g>
            <g transform="matrix(12,0,0,12,269.056,315.228)">
                <path d="M0.305,-0.548C0.096,-0.548 0.021,-0.352 0.021,-0.176C0.021,-0.059 0.071,0.017 0.165,0.017C0.226,0.017 0.267,-0.015 0.303,-0.065C0.318,-0.015 0.362,0.008 0.414,0.014L0.459,-0.084C0.435,-0.095 0.434,-0.114 0.439,-0.15L0.489,-0.498C0.433,-0.529 0.371,-0.548 0.305,-0.548ZM0.293,-0.441C0.309,-0.441 0.32,-0.438 0.333,-0.433L0.294,-0.16C0.27,-0.123 0.246,-0.094 0.216,-0.094C0.188,-0.094 0.171,-0.115 0.171,-0.173C0.171,-0.295 0.207,-0.441 0.293,-0.441Z" style="fill:rgb(109,109,109);fill-rule:nonzero;"/>
            </g>
            <g transform="matrix(12,0,0,12,274.744,315.228)">
                <path d="M0.232,-0.426L0.317,-0.426L0.349,-0.531L0.247,-0.531L0.265,-0.664L0.135,-0.65L0.104,-0.531L0.039,-0.531L0.023,-0.426L0.084,-0.426L0.047,-0.159C0.032,-0.05 0.08,0.017 0.181,0.017C0.223,0.017 0.271,0.005 0.31,-0.022L0.274,-0.117C0.257,-0.108 0.244,-0.103 0.227,-0.103C0.201,-0.103 0.19,-0.119 0.195,-0.157L0.232,-0.426Z" style="fill:rgb(109,109,109);fill-rule:nonzero;"/>
            </g>
            <g transform="matrix(12,0,0,12,278.338,315.228)">
                <path d="M0.305,-0.548C0.096,-0.548 0.021,-0.352 0.021,-0.176C0.021,-0.059 0.071,0.017 0.165,0.017C0.226,0.017 0.267,-0.015 0.303,-0.065C0.318,-0.015 0.362,0.008 0.414,0.014L0.459,-0.084C0.435,-0.095 0.434,-0.114 0.439,-0.15L0.489,-0.498C0.433,-0.529 0.371,-0.548 0.305,-0.548ZM0.293,-0.441C0.309,-0.441 0.32,-0.438 0.333,-0.433L0.294,-0.16C0.27,-0.123 0.246,-0.094 0.216,-0.094C0.188,-0.094 0.171,-0.115 0.171,-0.173C0.171,-0.295 0.207,-0.441 0.293,-0.441Z" style="fill:rgb(109,109,109);fill-rule:nonzero;"/>
            </g>
            <g transform="matrix(12,0,0,12,285.958,315.228)">
                <path d="M0.326,-0.647C0.348,-0.647 0.369,-0.641 0.392,-0.627L0.444,-0.715C0.413,-0.739 0.369,-0.758 0.312,-0.758C0.194,-0.758 0.126,-0.683 0.112,-0.582L0.106,-0.531L0.042,-0.531L0.027,-0.426L0.091,-0.426L0.04,-0.049C0.026,0.052 -0.009,0.083 -0.076,0.111L-0.042,0.22C0.071,0.176 0.163,0.126 0.188,-0.054L0.239,-0.426L0.329,-0.426L0.361,-0.531L0.253,-0.531L0.259,-0.573C0.266,-0.625 0.287,-0.647 0.326,-0.647Z" style="fill:rgb(109,109,109);fill-rule:nonzero;"/>
            </g>
            <g transform="matrix(12,0,0,12,289.275,315.228)">
                <path d="M0.217,0.017C0.405,0.017 0.485,-0.165 0.485,-0.335C0.485,-0.474 0.412,-0.548 0.292,-0.548C0.104,-0.548 0.023,-0.366 0.023,-0.196C0.023,-0.056 0.096,0.017 0.217,0.017ZM0.227,-0.094C0.191,-0.094 0.173,-0.118 0.173,-0.176C0.173,-0.27 0.199,-0.437 0.282,-0.437C0.317,-0.437 0.335,-0.413 0.335,-0.355C0.335,-0.261 0.309,-0.094 0.227,-0.094Z" style="fill:rgb(109,109,109);fill-rule:nonzero;"/>
            </g>
            <g transform="matrix(12,0,0,12,295.059,315.228)">
                <path d="M0.342,-0.546C0.284,-0.546 0.24,-0.504 0.209,-0.437L0.212,-0.531L0.085,-0.531L0.011,-0L0.159,-0L0.194,-0.25C0.219,-0.336 0.251,-0.399 0.304,-0.399C0.318,-0.399 0.33,-0.396 0.342,-0.393L0.388,-0.538C0.373,-0.543 0.36,-0.546 0.342,-0.546Z" style="fill:rgb(109,109,109);fill-rule:nonzero;"/>
            </g>
            <g transform="matrix(12,0,0,12,298.875,315.228)">
                <path d="M0.592,-0.548C0.535,-0.548 0.49,-0.51 0.453,-0.453C0.444,-0.513 0.407,-0.548 0.352,-0.548C0.292,-0.548 0.247,-0.506 0.21,-0.446L0.213,-0.531L0.084,-0.531L0.01,-0L0.158,-0L0.2,-0.305C0.23,-0.377 0.255,-0.418 0.279,-0.418C0.295,-0.418 0.305,-0.405 0.299,-0.363L0.249,-0L0.397,-0L0.441,-0.309C0.47,-0.378 0.494,-0.418 0.519,-0.418C0.535,-0.418 0.544,-0.405 0.539,-0.363L0.488,-0L0.636,-0L0.692,-0.389C0.706,-0.487 0.665,-0.548 0.592,-0.548Z" style="fill:rgb(109,109,109);fill-rule:nonzero;"/>
            </g>
            <g transform="matrix(12,0,0,12,307.167,315.228)">
                <path d="M0.305,-0.548C0.096,-0.548 0.021,-0.352 0.021,-0.176C0.021,-0.059 0.071,0.017 0.165,0.017C0.226,0.017 0.267,-0.015 0.303,-0.065C0.318,-0.015 0.362,0.008 0.414,0.014L0.459,-0.084C0.435,-0.095 0.434,-0.114 0.439,-0.15L0.489,-0.498C0.433,-0.529 0.371,-0.548 0.305,-0.548ZM0.293,-0.441C0.309,-0.441 0.32,-0.438 0.333,-0.433L0.294,-0.16C0.27,-0.123 0.246,-0.094 0.216,-0.094C0.188,-0.094 0.171,-0.115 0.171,-0.173C0.171,-0.295 0.207,-0.441 0.293,-0.441Z" style="fill:rgb(109,109,109);fill-rule:nonzero;"/>
            </g>
            <g transform="matrix(12,0,0,12,312.855,315.228)">
                <path d="M0.232,-0.426L0.317,-0.426L0.349,-0.531L0.247,-0.531L0.265,-0.664L0.135,-0.65L0.104,-0.531L0.039,-0.531L0.023,-0.426L0.084,-0.426L0.047,-0.159C0.032,-0.05 0.08,0.017 0.181,0.017C0.223,0.017 0.271,0.005 0.31,-0.022L0.274,-0.117C0.257,-0.108 0.244,-0.103 0.227,-0.103C0.201,-0.103 0.19,-0.119 0.195,-0.157L0.232,-0.426Z" style="fill:rgb(109,109,109);fill-rule:nonzero;"/>
            </g>
        </g>
    </g>
</svg>
